<svg width="64" height="64" fill="none" xmlns="http://www.w3.org/2000/svg"><path d="M36.825 14.6a3.983 3.983 0 0 0-1.216-.608c-.347-.116-.81-.174-1.388-.174-1.041 0-2.083.29-3.124.868-.984.579-1.88 1.447-2.69 2.604-.753 1.157-1.36 2.633-1.823 4.426-.463 1.793-.694 3.905-.694 6.335s.318 4.687.954 6.77c.694 2.082 1.62 3.876 2.777 5.38a13.508 13.508 0 0 0 4.34 3.558c1.677.868 3.558 1.302 5.64 1.302 1.794 0 3.414-.26 4.86-.78a22.13 22.13 0 0 0 4.34-2.257l1.302 2.43a78.413 78.413 0 0 1-3.472 2.95 57.824 57.824 0 0 1-3.645 2.517 49.363 49.363 0 0 1-3.905 2.17A88.694 88.694 0 0 1 34.568 54c-2.95 0-5.699-.463-8.244-1.389-2.488-.983-4.658-2.343-6.51-4.078-1.793-1.794-3.21-3.935-4.252-6.422C14.521 39.565 14 36.73 14 33.605c0-3.414.579-6.423 1.736-9.026 1.215-2.661 2.835-4.947 4.86-6.856 2.025-1.967 4.368-3.558 7.03-4.773A41.457 41.457 0 0 1 36.042 10c2.43 0 4.831.434 7.203 1.302 2.373.81 4.369 1.88 5.989 3.21V24.84H39.34L36.824 14.6z" fill="#000"/><path opacity=".03" fill="#000" d="M0 44h48v16H0z"/></svg>