<svg width="64" height="64" fill="none" xmlns="http://www.w3.org/2000/svg"><path d="M15.412 31.824H4v2.477h11.412v-2.477z" fill="#EFB34B"/><path d="M26.812 34.432a5.845 5.845 0 0 0-.925-1.913 9.955 9.955 0 0 0-.96-1.085l-2.394-2.245-.588-.604c-.294-.335-.494-.63-.597-.878-.108-.262-.163-.667-.157-1.17.024-1.158.278-1.572.43-1.716.102-.098.235-.144.429-.14.194.006.642-.01.732 1.184.032.425.052.875.059 1.336v1.355h4.113v-1.548a20.86 20.86 0 0 0-.126-2.332c-.342-3.051-1.922-4.595-4.698-4.595-3.352.012-5.052 2.354-5.052 6.961 0 1.132.113 2.11.335 2.905.197.709.53 1.373.982 1.953.375.498.797.958 1.259 1.377l2.436 2.26.403.428c.157.2.282.422.37.66.11.361.162.737.152 1.114.002.314-.023.628-.074.938-.194 1.288-.723 1.287-.975 1.288a.604.604 0 0 1-.453-.18c-.198-.203-.525-.788-.505-2.448v-1.435h-4.114v1.4c-.012.814.027 1.63.114 2.44.217 2.223 1.06 3.678 2.502 4.322a5.34 5.34 0 0 0 2.304.508h.076c.862.021 1.717-.17 2.488-.556 1.829-.876 2.753-3.107 2.746-6.63.003-1.155-.104-2.147-.312-2.954zM31.234 20.338V44.24H28.3V20.338h2.933zM56.314 20.342h-4.328L48.3 44.232h3.694l.635-5.097h3.028l.648 5.098h3.693l-3.685-23.891zm-1.148 14.793h-2.055l1.032-8.271 1.023 8.271zM36.82 39.565V20.341l-4.339-.003v23.899h8.752v-4.672H36.82zM46.562 20.33l-1.508 17.272-1.526-17.131-.012-.14h-2.67l2.58 23.852.014.05h3.122l2.593-23.902h-2.593zM10.43 23.008a5.252 5.252 0 0 0-.25-1.235 2.357 2.357 0 0 0-1.445-1.5c-.463-.178-1.105-.267-1.961-.272H4v10.482h2.773c.79 0 1.437-.07 1.923-.214 1.168-.33 1.768-1.598 1.782-3.771v-2.237c-.005-.457-.021-.878-.049-1.253zm-4.012-1.023h.204c.7.004 1.114.19 1.264.564.076.191.167.645.172 1.72v2.22c0 .299-.01.577-.027.83-.027.447-.15.766-.367.958-.11.101-.366.221-.96.221h-.286v-6.514zM13.856 20h-1.674l-1.345 10.442h1.448l.231-2.22h1.002l.235 2.22h1.448L13.856 20zm-.52 6.444h-.642l.323-3.088.318 3.088z" fill="#1E1E1E"/></svg>
