<svg width="64" height="64" fill="none" xmlns="http://www.w3.org/2000/svg"><path fill="#fff" d="M0 0h64v64H0z"/><mask id="a" fill="#fff"><path d="M47.965 37.596l4.213-4.213 3.564 3.565c2.764 2.764 2.001 6.132-.061 9.559-2.863 4.762-5.68 7.662-9.643 9.643-3.847 1.927-6.799 2.821-9.56.06L22.245 41.976l-1.206 1.206 9.487 9.486-3.616 3.616c-2.738 2.738-6.488 1.773-9.57.073-4.64-2.555-7.363-5.598-9.487-9.487-1.773-3.248-2.499-7 .072-9.57l9.035-9.035c2.6-2.6 6.972-2.67 9.57-.072l9.487 9.487c3.161 3.16 8.682 3.184 11.949-.083z"/></mask><path d="M47.965 37.596l.707.707-.707-.707zm4.213-4.213l.707-.707-.707-.707-.707.707.707.707zm3.564 3.565l.707-.707-.707.707zm-.061 9.559l-.857-.516.857.516zm-9.643 9.643l-.447-.895h-.001l.448.895zm-9.56.06l-.706.708.707-.707zM22.245 41.976l.707-.707-.707-.707-.707.707.707.707zm-1.206 1.206l-.707-.707-.707.707.707.707.707-.707zm9.487 9.486l.707.707.707-.707-.707-.707-.707.707zm-3.616 3.616l-.707-.707.707.707zm-9.57.073l.483-.876-.483.876zm-9.487-9.487l.878-.48-.878.48zm.072-9.57l.707.707-.707-.707zm9.035-9.035l.707.707-.707-.707zm9.57-.072l-.707.707.707-.707zm9.487 9.487l.707-.708-.707.708zm12.656.624l4.213-4.212-1.414-1.415-4.213 4.213 1.414 1.414zm2.799-4.212l3.564 3.564 1.414-1.414-3.564-3.565-1.414 1.415zm3.564 3.564c1.177 1.177 1.573 2.43 1.488 3.76-.088 1.385-.703 2.922-1.699 4.576l1.714 1.032c1.067-1.773 1.864-3.634 1.981-5.48.121-1.901-.483-3.716-2.07-5.302l-1.414 1.414zm-.211 8.337c-2.798 4.653-5.488 7.392-9.233 9.263l.894 1.79c4.182-2.09 7.125-5.152 10.053-10.023l-1.714-1.03zm-9.234 9.264c-1.92.961-3.465 1.582-4.815 1.685-1.263.096-2.408-.256-3.589-1.437l-1.414 1.414c1.579 1.58 3.29 2.16 5.155 2.017 1.778-.136 3.631-.925 5.559-1.891l-.896-1.788zm-8.404.248L22.951 41.268l-1.415 1.415 14.236 14.235 1.414-1.414zm-15.65-14.236l-1.205 1.206 1.415 1.414 1.205-1.205-1.415-1.415zm-1.205 2.62l9.487 9.486 1.414-1.414-9.486-9.486-1.415 1.414zm9.487 8.072l-3.616 3.616 1.414 1.415 3.616-3.617-1.414-1.414zm-3.616 3.616c-1.135 1.135-2.46 1.505-3.882 1.41-1.46-.098-3.021-.692-4.498-1.506l-.966 1.751c1.606.886 3.461 1.625 5.33 1.75 1.907.128 3.827-.387 5.43-1.99l-1.414-1.415zm-8.38-.096c-4.461-2.455-7.052-5.354-9.092-9.09l-1.756.958c2.208 4.043 5.062 7.23 9.883 9.884l.964-1.752zM8.73 46.39c-1.733-3.174-2.16-6.322-.099-8.384l-1.414-1.414c-3.08 3.08-2.057 7.433-.242 10.756l1.755-.958zm-.099-8.384l9.035-9.035-1.414-1.414-9.035 9.035 1.414 1.414zm9.035-9.035c2.223-2.223 5.962-2.267 8.156-.072l1.414-1.414c-3.002-3.003-8.008-2.904-10.984.072l1.414 1.414zm8.156-.072l9.487 9.487 1.414-1.415-9.487-9.486-1.414 1.414zm9.487 9.487c3.556 3.556 9.71 3.57 13.363-.083l-1.414-1.414c-2.881 2.88-7.769 2.849-10.535.082l-1.414 1.415z" fill="#452F8C" mask="url(#a)"/><mask id="b" fill="#fff"><path d="M51.433 12.328a41.742 41.742 0 0 1 4.553 5.327c2.144 3.003 2.38 7.104-.193 9.676l-9.04 9.04c-2.65 2.65-6.928 2.718-9.564.082l-9.472-9.472c-3.216-3.216-8.689-3.16-11.822-.027l-4.337 4.337-3.26-3.26c-2.757-2.756-2.364-6.368-.228-9.853 2.866-4.685 5.162-6.903 9.648-9.648 3.91-2.4 7.981-1.645 10.737 1.111l13.042 13.043 1.206-1.206-9.483-9.484 3.618-3.618c2.74-2.739 4.953-3.496 9.676-.193 1.604 1.121 3.29 2.531 4.919 4.145z"/></mask><path d="M51.433 12.328l-.704.71.704-.71zm4.553 5.327l.814-.58-.814.58zm-.193 9.676l-.707-.707.707.707zm-9.04 9.04l.708.706-.707-.707zm-9.564.082l.707-.707-.707.707zm-9.472-9.472l-.707.707.707-.707zm-11.822-.027l-.707-.707.707.707zm-4.337 4.337l-.707.707.707.707.707-.707-.707-.707zm-3.26-3.26l.707-.707-.707.707zm-.228-9.853l.853.523-.853-.523zm9.648-9.648l.522.853h.002l-.524-.853zm10.737 1.111l.707-.707-.707.707zm13.042 13.043l-.707.707.707.707.707-.707-.707-.707zm1.206-1.206l.707.707.707-.707-.707-.707-.707.707zm-9.483-9.484l-.707-.707-.707.707.707.708.707-.707zm3.618-3.618l.707.708-.707-.708zm9.676-.193l-.573.82.573-.82zm4.215 4.855a40.74 40.74 0 0 1 4.443 5.199l1.628-1.163a42.746 42.746 0 0 0-4.663-5.457l-1.408 1.421zm4.443 5.198c1.952 2.733 2.04 6.262-.086 8.388l1.414 1.414c3.018-3.018 2.637-7.691.3-10.964l-1.628 1.162zm-.086 8.388l-9.04 9.04 1.415 1.413 9.04-9.039-1.415-1.414zm-9.04 9.04c-2.274 2.274-5.919 2.313-8.15.082l-1.414 1.414c3.041 3.042 7.952 2.944 10.979-.082l-1.414-1.415zm-8.15.082l-9.472-9.472-1.415 1.414 9.473 9.472 1.414-1.414zm-9.472-9.472c-3.609-3.609-9.714-3.549-13.236-.027l1.414 1.414c2.745-2.745 7.584-2.796 10.407.027l1.415-1.414zm-13.236-.027l-4.337 4.337 1.414 1.414 4.337-4.337-1.414-1.414zm-2.923 4.337l-3.26-3.26-1.415 1.414 3.26 3.26 1.415-1.414zm-3.26-3.26c-1.187-1.187-1.673-2.52-1.656-3.934.018-1.447.566-3.044 1.574-4.689l-1.705-1.045c-1.128 1.84-1.845 3.79-1.869 5.71-.024 1.951.672 3.803 2.241 5.372l1.415-1.414zM8.923 18.7c1.408-2.3 2.65-3.955 4.068-5.364 1.418-1.409 3.044-2.603 5.25-3.953l-1.044-1.706c-2.281 1.396-4.047 2.683-5.615 4.24-1.568 1.558-2.906 3.355-4.365 5.74L8.923 18.7zm9.319-9.318c3.503-2.15 7.067-1.472 9.506.967l1.414-1.415C26.09 5.861 21.51 5.03 17.195 7.678l1.047 1.704zm9.506.967L40.79 23.39l1.414-1.414L29.162 8.934l-1.414 1.415zM42.204 23.39l1.206-1.206-1.414-1.414-1.206 1.206 1.414 1.414zm1.206-2.62l-9.483-9.484-1.414 1.415 9.483 9.483 1.414-1.414zm-9.483-8.07l3.618-3.617-1.414-1.415-3.618 3.618 1.414 1.415zm3.618-3.617C38.877 7.75 39.898 7.1 41.012 7.01c1.132-.09 2.624.38 4.929 1.992l1.146-1.64c-2.418-1.69-4.394-2.493-6.234-2.346-1.859.149-3.315 1.245-4.722 2.652l1.414 1.415zm8.396-.081c1.553 1.085 3.196 2.458 4.788 4.035l1.408-1.42c-1.666-1.65-3.396-3.098-5.05-4.254L45.94 9.003z" fill="#452F8C" mask="url(#b)"/></svg>