<svg width="64" height="64" fill="none" xmlns="http://www.w3.org/2000/svg"><path fill="#fff" d="M0 0h64v64H0z"/><path d="M17.334 26a3.333 3.333 0 1 1-6.666 0 3.333 3.333 0 0 1 6.666 0zm36 0a3.333 3.333 0 1 1-6.666 0 3.333 3.333 0 0 1 6.666 0" fill="#E1E8ED"/><path d="M50.126 30.667H13.933v-5.334h36.193v5.334z" fill="#E1E8ED"/><path d="M49.334 28h-34.86v-5.333h35.693L49.334 28z" fill="#E1E8ED"/><path d="M24 20.667a4.667 4.667 0 1 1-9.333 0 4.667 4.667 0 0 1 9.333 0" fill="#FFD983"/><path d="M26.667 16.667a3.333 3.333 0 1 1-6.667 0 3.333 3.333 0 0 1 6.667 0" fill="#FFD983"/><path d="M29.334 19.333a3.333 3.333 0 1 1-6.666 0 3.333 3.333 0 0 1 6.666 0z" fill="#FFD983"/><path d="M34.667 16.667a3.333 3.333 0 1 1-6.667 0 3.333 3.333 0 0 1 6.667 0z" fill="#FFD983"/><path d="M34.667 19.333a3.333 3.333 0 1 1-6.667 0 3.333 3.333 0 0 1 6.667 0zm8-6.666a3.334 3.334 0 1 1-6.668 0 3.334 3.334 0 0 1 6.668 0z" fill="#FFD983"/><path d="M42.667 19.333a3.333 3.333 0 1 1-6.667 0 3.333 3.333 0 0 1 6.667 0z" fill="#FFD983"/><path d="M44 23.333a3.333 3.333 0 1 1-6.665 0 3.333 3.333 0 0 1 6.666 0z" fill="#FFD983"/><path d="M38.667 23.333a3.333 3.333 0 1 1-6.667 0 3.333 3.333 0 0 1 6.667 0" fill="#FFD983"/><path d="M34.667 24.667a3.333 3.333 0 1 1-6.667 0 3.333 3.333 0 0 1 6.667 0z" fill="#FFD983"/><path d="M32 23.333a3.333 3.333 0 1 1-6.665 0 3.333 3.333 0 0 1 6.666 0z" fill="#FFD983"/><path d="M29.334 23.333a3.333 3.333 0 1 1-6.666 0 3.333 3.333 0 0 1 6.666 0z" fill="#FFD983"/><path d="M26.667 24.667a3.333 3.333 0 1 1-6.667 0 3.333 3.333 0 0 1 6.667 0" fill="#FFD983"/><path d="M22.667 24.667a3.334 3.334 0 1 1-6.668 0 3.334 3.334 0 0 1 6.668 0zM48 26a3.333 3.333 0 1 1-6.667 0A3.333 3.333 0 0 1 48 26zm-2.667-8a3.333 3.333 0 1 1-6.667 0 3.333 3.333 0 0 1 6.667 0" fill="#FFD983"/><path d="M49.334 22a3.333 3.333 0 1 1-6.667 0 3.333 3.333 0 0 1 6.667 0zm-9.333-5.333a3.333 3.333 0 1 1-6.667 0 3.333 3.333 0 0 1 6.667 0" fill="#FFD983"/><path d="M38.667 19.333a3.333 3.333 0 1 1-6.666 0 3.333 3.333 0 0 1 6.666 0zM45.334 14a2 2 0 1 1-4 0 2 2 0 0 1 4 0zm4 4a2 2 0 1 1-4 0 2 2 0 0 1 4 0zm1.333 6.667a2 2 0 1 1-4 0 2 2 0 0 1 4 0zm-33.333 0a1.998 1.998 0 0 1-2.765 1.848 2 2 0 1 1 2.765-1.848" fill="#FFD983"/><path d="M46.667 16.667a2 2 0 1 1-4 0 2 2 0 0 1 4 0" fill="#FFD983"/><path d="M42.667 15.333a2.001 2.001 0 1 1-4.002-.001 2.001 2.001 0 0 1 4.002.001zM24 22a2.002 2.002 0 1 1-4.003-.002A2.002 2.002 0 0 1 24 22z" fill="#FFAC33"/><path d="M26.667 23.334a2 2 0 1 1-4-.002 2 2 0 0 1 4 .002" fill="#FFAC33"/><path d="M24 24.667a2.001 2.001 0 1 1-4.002-.002 2.001 2.001 0 0 1 4.002.002" fill="#FFAC33"/><path d="M22.667 24.667a2 2 0 1 1-4-.001 2 2 0 0 1 4 0" fill="#FFAC33"/><path d="M20 24.667a2.001 2.001 0 1 1-4.002-.002 2.001 2.001 0 0 1 4.002.002zM29.334 26a2 2 0 1 1-4-.001 2 2 0 0 1 4 .001zm5.333-5.333a2.001 2.001 0 1 1-4.002-.002 2.001 2.001 0 0 1 4.002.002zm14.667 4a2 2 0 0 1-3.416 1.413 2 2 0 1 1 3.416-1.413" fill="#FFAC33"/><path d="M33.333 23.334a2.001 2.001 0 1 1-4.002-.002 2.001 2.001 0 0 1 4.002.002" fill="#FFAC33"/><path d="M32 26a2.002 2.002 0 1 1-4.003-.001A2.002 2.002 0 0 1 32 26zm14.667-7.333a1.334 1.334 0 1 1-2.667 0 1.334 1.334 0 0 1 2.667 0zm0 6.666a1.333 1.333 0 1 1-2.667 0 1.333 1.333 0 0 1 2.667 0zm-21.333-8a1.333 1.333 0 1 1-2.666 0 1.333 1.333 0 0 1 2.666 0zm17.333 5.334a2.667 2.667 0 1 1-5.333 0 2.667 2.667 0 0 1 5.333 0z" fill="#FFAC33"/><path d="M38.667 24a2.667 2.667 0 1 1-5.333 0 2.667 2.667 0 0 1 5.333 0z" fill="#FFAC33"/><path d="M42.667 26.667a2.666 2.666 0 1 1-5.333 0 2.666 2.666 0 0 1 5.333 0zm-4-6.667a2.667 2.667 0 1 1-5.333 0 2.667 2.667 0 0 1 5.333 0z" fill="#FFAC33"/><path d="M37.334 22a2 2 0 1 1-4 0 2 2 0 0 1 4 0zm-12 2.667a2 2 0 1 1-4 0 2 2 0 0 1 4 0z" fill="#FFD983"/><path d="M22.667 26a2 2 0 1 1-4 0 2 2 0 0 1 4 0zm12-1.333a2 2 0 1 1-4 0 2 2 0 0 1 4 0zm4 0a2 2 0 1 1-4 0 2 2 0 0 1 4 0z" fill="#FFD983"/><path d="M37.334 24.667a2 2 0 1 1-4 0 2 2 0 0 1 4 0z" fill="#FFD983"/><path d="M48.243 49.339c-.134 2.93-2.643 5.328-5.576 5.328H21.333c-2.933 0-5.441-2.398-5.574-5.328l-.85-18.678A5.061 5.061 0 0 1 20 25.333h24a5.064 5.064 0 0 1 5.092 5.328l-.85 18.678z" fill="#E1E8ED"/><mask id="a" maskUnits="userSpaceOnUse" x="14" y="25" width="36" height="30"><path d="M48.243 49.339c-.134 2.93-2.643 5.328-5.576 5.328H21.333c-2.933 0-5.441-2.398-5.574-5.328l-.85-18.678A5.061 5.061 0 0 1 20 25.333h24a5.064 5.064 0 0 1 5.092 5.328l-.85 18.678z" fill="#E1E8ED"/></mask><g mask="url(#a)"><path d="M31.557 29.333h1.333c-.666 0-2.666-.876-2.666 1.334l-.002 2.666v21.334h4.002v-24c0-2.21-2-1.334-2.667-1.334zm8 0h1.333c-.666 0-2.666-.876-2.666 1.334v24h4v-24c0-2.21-2-1.334-2.667-1.334zm8 0h1.333c-.666 0-2.666-.876-2.666 1.334v24h4v-24c0-2.21-2-1.334-2.667-1.334zm-24 0h1.333c-.666 0-2.666-.876-2.666 1.334v24h4v-24c0-2.21-2-1.334-2.667-1.334zm-8 0h1.333c-.666 0-2.666-.876-2.666 1.334v24h4v-24c0-2.21-2-1.334-2.667-1.334z" fill="#DA2F47"/><path opacity=".6" d="M49.333 33.334H14.666v-2.667h34.667v2.666z" fill="#99AAB5"/></g><path d="M53.334 28c0 1.472-1.492 2.667-3.334 2.667-1.841 0-3.333-1.195-3.333-2.667 0-1.473 1.492-2.667 3.333-2.667 1.842 0 3.334 1.194 3.334 2.667zm-36 0c0 1.472-1.492 2.667-3.334 2.667-1.841 0-3.333-1.195-3.333-2.667 0-1.473 1.492-2.667 3.333-2.667 1.842 0 3.334 1.194 3.334 2.667z" fill="#E1E8ED"/><path d="M50.126 30.667H13.933v-5.334h36.193v5.334z" fill="#E1E8ED"/><path d="M50.667 26.667A1.334 1.334 0 0 1 49.334 28H14.667a1.334 1.334 0 0 1 0-2.667h34.667a1.333 1.333 0 0 1 1.333 1.334z" fill="#fff"/><path d="M52.375 23.667c.375.396 2.855 3.229.041 6.125-.478-.147-1-5.167-.749-5.521.25-.355.708-.604.708-.604zm-40.725 0c-.375.396-2.962 3.188-.15 6.082.48-.145 1.107-5.124.858-5.478-.25-.355-.708-.604-.708-.604" fill="#E1E8ED"/></svg>