<svg width="64" height="64" fill="none" xmlns="http://www.w3.org/2000/svg"><g opacity=".88" stroke="#1F4741" stroke-width=".32" stroke-linecap="round" stroke-linejoin="round"><path d="M21.936 37.765l-3.782-2.73m-1.218 2.164l3.757 2.578-3.757-2.578zM24.72 34.11l-3.62-3.106m-1.535 1.955l3.735 2.915-3.735-2.915zM15.128 41.633l3.5 2.443m.934-2.18l-3.643-2.499 3.643 2.499zM27.63 31.067l-3.137-3.57m-1.736 1.675l3.419 3.342-3.419-3.342zM17.891 46.317l-3.31-2.45m-.255 2.17l3.087 2.508-3.087-2.507zM30.473 28.667l-2.398-4.022m-1.795 1.33l2.8 3.82-2.8-3.82zM17.207 50.748l-2.846-2.604m.349 1.976l2.599 2.755-2.6-2.755zM18.497 56.674l-2.155-3.115m-.969-1.62l2.365 2.92-2.365-2.92zM33.03 26.915l-1.37-4.389m-1.77.967l1.903 4.228-1.902-4.228zM24.493 27.496l-3.164-3.574m-2.005 1.918l3.433 3.331-3.433-3.33zM21.1 31.005l-3.62-3.107m-1.652 2.173l3.738 2.888-3.738-2.888zM21.064 59.602l-1.811-3.54m-1.591-1.116l1.956 3.325-1.956-3.325zM35.2 25.746l-.184-4.562m-1.647.572l.801 4.506-.801-4.506zM28.075 24.645L25.69 20.61m-2.212 1.57l2.801 3.794-2.802-3.793zM18.154 35.035l-3.77-2.716m-1.19 2.29l3.742 2.59-3.742-2.59zM31.66 22.526l-1.369-4.389m-2.302 1.128l1.902 4.228-1.902-4.228zM15.919 39.397l-3.658-2.486m-.633 2.28l3.5 2.442-3.5-2.443zM24.98 61.316l-1.674-3.946m-2.16-.485l1.709 3.747-1.709-3.747zM36.967 25.078l1.055-4.487m-1.447.214l-.437 4.552.437-4.552zM35.015 21.184l-.185-4.563m-2.236.633l.774 4.502-.774-4.502zM14.58 43.867l-3.309-2.45m-.047 2.125l3.101 2.495-3.1-2.495zM30.042 61.536l-1.755-4.199m-2.585.203l1.672 4.095-1.672-4.095zM38.02 20.59l1.053-4.459M37 16.24l-.426 4.566.426-4.566zM12.096 47.377l2.614 2.742m-.348-1.975l-2.846-2.605 2.846 2.605zM25.692 20.61l-2.383-4.034m-2.644 1.797l2.814 3.809-2.814-3.809zM30.29 18.137l-1.369-4.388m-2.834 1.288l1.902 4.228-1.902-4.228zM21.329 23.922l-3.137-3.57m-2.287 2.146l3.419 3.343-3.42-3.343zM34.831 16.621l-.17-4.574m-2.867.702l.801 4.505-.801-4.505zM38.264 24.861l2.248-4.103m-1.19-.166l-1.66 4.315 1.66-4.315zM39.074 16.131l1.054-4.487m-2.675.031l-.452 4.564.452-4.564zM17.48 27.898l-3.62-3.106m-1.782 2.375l3.75 2.904-3.75-2.904z"/><path clip-rule="evenodd" d="M16.342 53.56l-2.128-3.113-1.206-1.428 2.365 2.92.969 1.62z"/><path d="M40.512 20.758l2.234-4.091m-1.748-.401l-1.675 4.326 1.675-4.326zM35.947 60.068l-2.06-4.271m-2.854.96l1.872 4.253-1.872-4.252zM42.746 16.666l2.248-4.103m-2.348-.627l-1.648 4.33 1.648-4.33zM14.385 32.32l-3.782-2.73m-1.15 2.428l3.742 2.59-3.742-2.59zM34.66 12.046l-.184-4.562m-3.47.747l.787 4.518-.786-4.518zM40.127 11.645l1.055-4.487m-3.292-.034l-.438 4.551.438-4.551zM19.253 56.062l-1.811-3.54m-1.748-.916l1.968 3.34-1.968-3.34zM39.13 25.02l3.247-3.415m-.855-.51l-2.772 3.79 2.772-3.79zM42.263 56.867l-2.544-4.051m-2.915 1.674l2.286 4.186-2.286-4.186zM28.922 13.749l-1.37-4.39m-3.366 1.45l1.901 4.229-1.901-4.228zM42.377 21.605l3.262-3.428m-1.345-.873l-2.772 3.79 2.772-3.79zM44.995 12.563l2.234-4.091m-2.907-.862l-1.675 4.327 1.675-4.327zM45.64 18.177L48.9 14.75m-1.821-1.249l-2.787 3.803L47.08 13.5zM48.901 14.75l3.26-3.4m-2.31-1.64l-2.771 3.791 2.771-3.79zM12.26 36.91l-3.642-2.498m-.502 2.32l3.512 2.458-3.512-2.457zM23.308 16.576l-2.371-4.02m-3.072 1.997l2.8 3.82-2.8-3.82zM52.16 11.35l3.263-3.427m-2.8-2.004L49.85 9.71l2.772-3.79zM47.23 8.472l2.248-4.104m-3.495-1.072l-1.66 4.314 1.66-4.314zM48.494 52.043l-3.128-3.53M42.6 50.828l2.826 3.823-2.826-3.823zM23.306 57.37l-1.662-3.931m-2.206-.3l1.709 3.746-1.709-3.746zM57.772 10.34l-3.676 2.976m1.533 2.318l4.03-2.479-4.03 2.479zM41.182 7.158l1.067-4.472m-3.92-.114l-.438 4.552.437-4.552zM51.626 18.115l4.004-2.481m-1.533-2.318l-3.676 2.977 3.676-2.977zM57.42 21.057L61.9 19.71m-.863-3.4l-4.284 1.924 4.284-1.923zM50.42 16.293l-3.676 2.977m.85 1.323l4.031-2.478-4.03 2.478zM54.094 45.864l-3.752-2.754m-2.384 2.815l3.45 3.17-3.45-3.17zM18.192 20.351l-3.164-3.574m-2.545 2.405l3.422 3.316-3.421-3.316zM34.476 7.484L34.29 2.92m-4.073.82l.789 4.49-.79-4.49zM46.745 19.27l-3.676 2.977m.496.826l4.03-2.48-4.03 2.48zM11.271 41.418l-3.32-2.465m.187 2.081l3.086 2.508-3.086-2.508zM62.224 23.352l-4.566.727m-.21 3.165l4.596-.114-4.596.114zM58.51 38.68l-4.228-1.706m-1.822 3.145l4.008 2.252-4.008-2.252zM61.339 30.99l-4.543-.52m-1.062 3.266l4.424 1.13-4.424-1.13zM39.55 25.539l4.015-2.467m-.496-.825l-3.677 2.977 3.676-2.977zM28.287 57.337l-1.753-4.225m-2.515.318l1.683 4.11-1.683-4.11zM52.953 22.39l4.467-1.334m-.666-2.823l-4.285 1.924 4.285-1.924zM27.552 9.36l-1.37-4.389m-3.91 1.596l1.913 4.243-1.913-4.243zM13.86 24.792l-3.62-3.107m-1.885 2.582l3.723 2.9-3.723-2.9zM48.471 23.737l4.481-1.346m-.483-2.234l-4.3 1.935 4.3-1.935zM9.497 44.622l2.6 2.755m-.58-1.838L8.67 42.935l2.845 2.604zM33.887 55.797l-2.063-4.245m-2.675.94l1.884 4.266-1.884-4.267zM57.658 24.08l-4.58.738m-.238 2.525l4.607-.1-4.607.1z"/><path clip-rule="evenodd" d="M10.644 46.098l2.365 2.92-.912-1.642-2.6-2.755 1.147 1.477z"/><path d="M44.006 25.072l4.466-1.335m-.302-1.645l-4.284 1.923 4.284-1.923zM56.797 30.47l-4.543-.517m-.944 2.653l4.424 1.13-4.424-1.13zM34.519 50.303l2.285 4.186m2.916-1.673l-2.532-4.037 2.532 4.037zM20.938 12.557l-2.384-4.034m-3.49 2.237l2.802 3.793-2.802-3.793zM48.452 37.867l4.008 2.252m1.822-3.145l-4.255-1.708 4.255 1.708zM39.763 46.989l2.838 3.838m2.765-2.313l-3.154-3.533 3.154 3.532zM50.342 43.11l-3.74-2.739m-2.083 2.398l3.439 3.156-3.439-3.155zM14.215 50.447l-2.154-3.115m-1.416-1.234l2.364 2.92-2.364-2.92zM53.079 24.818l-4.578.712m-.268 1.912l4.607-.1-4.607.1zM10.603 29.59l-3.781-2.73m-1.138 2.565l3.769 2.593-3.769-2.593zM39.524 26.418l4.482-1.346m-.12-1.057l-4.284 1.923 4.284-1.923zM17.442 52.522l-1.812-3.54m-1.892-.7l1.956 3.324-1.956-3.325zM46.87 31.489l4.44 1.117m.943-2.654l-4.558-.506 4.558.506zM15.028 16.777l-3.152-3.559M9.05 15.851l3.433 3.33-3.433-3.33zM43.65 27.543l4.582-.101m.269-1.912l-4.58.74 4.58-.74zM8.618 34.412l-3.67-2.502m-.332 2.38l3.5 2.443-3.5-2.443zM21.644 53.438l-1.674-3.946m-2.252-.114l1.72 3.76-1.72-3.76zM44.444 35.614l4.008 2.253m1.575-2.601l-4.24-1.721 4.24 1.72zM39.043 27.642l4.608-.099m.269-1.273l-4.565.727 4.565-.727zM26.534 53.112l-1.756-4.2m-2.446.435l1.686 4.083-1.686-4.083zM41.069 39.6l3.45 3.17m2.083-2.4l-3.74-2.738 3.74 2.739zM42.446 30.36l4.424 1.129m.825-2.043l-4.555-.533 4.555.533zM10.24 21.686l-3.62-3.107m-2.015 2.785l3.75 2.903-3.75-2.903zM7.95 38.953l-3.308-2.45m.41 2.023l3.087 2.508-3.086-2.508zM31.825 51.552l-2.06-4.271m-2.5.944l1.884 4.267-1.884-4.267zM42.211 44.981l-3.14-3.544m-2.15 1.74l2.841 3.812-2.84-3.811zM37.187 48.78l-2.559-4.04m-2.395 1.376l2.285 4.187-2.285-4.187zM40.435 33.362l4.008 2.252m1.343-2.069l-4.243-1.694 4.243 1.694zM8.67 42.934l-2.857-2.619m1.082 1.579l2.602 2.728-2.602-2.728zM38.022 29.23l4.424 1.13m.695-1.447l-4.543-.518 4.543.518zM6.821 26.86l-3.77-2.716m-1.11 2.69l3.743 2.59-3.742-2.59zM12.06 47.332l-2.14-3.127m-1.64-1.027l2.364 2.92-2.365-2.92zM37.618 36.43l3.45 3.17m1.794-1.969l-3.74-2.739 3.74 2.74zM15.63 48.982l-1.797-3.552m-2.052-.474l1.956 3.325-1.956-3.325zM34.084 39.34l2.838 3.838m2.15-1.74l-3.129-3.53 3.128 3.53zM36.428 31.11l4.008 2.252m1.108-1.51l-4.24-1.721 4.24 1.72zM1.104 31.832l3.512 2.458m.332-2.38L1.29 29.425l3.658 2.487zM19.97 49.492l-1.661-3.93m-2.3.07l1.709 3.746-1.709-3.747zM29.947 41.93l2.286 4.186m2.396-1.376l-2.544-4.05 2.544 4.05zM24.778 48.913l-1.756-4.199m-2.362.538l1.672 4.095-1.672-4.095zM29.765 47.28l-2.048-4.256m-2.324.95l1.872 4.251-1.872-4.252z"/><path d="M34.182 33.248l3.436 3.181m1.504-1.537l-3.74-2.739 3.74 2.74zM4.641 36.503l-3.309-2.45m.634 1.966l3.086 2.508-3.086-2.508zM31.243 35.529l2.84 3.81m1.86-1.431l-3.155-3.532 3.155 3.532zM4.296 39.138l2.599 2.755m-1.082-1.578L2.968 37.71l2.845 2.605zM27.661 37.743l2.286 4.186m2.137-1.24l-2.559-4.039 2.56 4.04zM9.921 44.205L7.767 41.09m-1.852-.832l2.365 2.92-2.365-2.92zM27.716 43.024l-2.075-4.26m-2.133.943l1.884 4.266-1.884-4.266zM18.974 41.17l1.687 4.082m2.362-.538l-1.74-4.21 1.74 4.21zM18.308 45.561l-1.662-3.931m-2.346.255l1.709 3.747-1.709-3.747z"/></g></svg>
