<svg xmlns="http://www.w3.org/2000/svg" width="64" height="64">
  <g fill="none" fill-rule="evenodd" stroke="#D24E4E" stroke-width=".410001">
    <path d="M6.875296 62.134298l-2.02613.085M6.875296 53.516954l-2.252364.2445M6.875296 44.900183l-2.658666.374M6.875296 36.282868l-3.17954.473495M6.875296 27.684364L3.120483 28.208M6.875296 19.07152l-4.34691.565814M6.875296 10.458668l-4.927757.589575M6.875296 1.844853l-5.486303.603142M15.489455 62.128757l-1.773576.26785M15.489455 53.524364l-1.991273.730182M15.489455 44.911515l-2.391758 1.10303M15.489455 36.297217l-2.91297 1.37551M15.489455 27.684364l-3.496728 1.559752M15.489455 19.07152l-4.099733 1.679996M15.489455 10.458666l-4.695953 1.752727M15.489455 1.844854l-5.271275 1.79005M24.102303 62.121994l-1.189818.49105M24.102303 53.524363l-1.400727 1.271757M24.102303 44.911515l-1.816727 1.852606M24.102303 36.297216l-2.362667 2.266177M24.102303 27.684363l-2.97697 2.551277M24.102303 19.07152l-3.612606 2.739878M24.102303 10.458666l-4.242424 2.855757M24.102303 1.844853l-4.849455 2.921208M32.716823 62.136873l-.055.734497M32.727202 53.524363l-.39751 1.799757M32.715156 44.911516l-.90764 2.54109M32.715156 36.297218l-1.536 3.071995M32.715156 27.684363l-2.214792 3.444843M32.715156 19.07152l-2.906186 3.698904M32.715156 10.458666l-3.587398 3.862783M32.715156 1.844853l-4.243883 3.961212M41.328 62.136873l1.387636.80572M41.328 53.524364l.901818 2.117818M41.328 44.911516l.2445 3.043879M41.328 36.297216l-.500364 3.707147M41.328 27.684364l-1.264 4.180848M41.328 19.07152l-2.027632 4.512M41.328 10.458666l-2.771879 4.735515M41.328 1.844854l-3.48703 4.87757M49.941818 62.136873l2.577944.79874M49.941818 53.524363l2.122667 2.222545M49.941818 44.911516l1.418667 3.321697M49.941818 36.297217l.617212 4.134788M49.94853 27.684364l-.2215 4.726792M49.941818 19.07152L48.897454 24.224M49.941818 10.458667l-1.850182 5.451636M49.941818 1.844854l-2.62109 5.652359M58.554667 62.136874l3.566545.7792M58.554667 53.524364l3.173818 2.229818M58.554667 44.911514l2.51055 3.434667M58.554667 36.297217l1.707636 4.377692M58.554667 27.684363l.847515 5.08994M58.555273 19.07152l-.02 5.620358M58.554667 10.458666l-.871273 6.005823M58.554667 1.844853L56.86352 8.12412"/>
  </g>
</svg>
