<?xml version="1.0" encoding="UTF-8"?>
<svg width="16px" height="16px" viewBox="0 0 16 16" version="1.1" xmlns="http://www.w3.org/2000/svg" xmlns:xlink="http://www.w3.org/1999/xlink">
    <g id="Artboard-2-Copy-2" stroke="none" stroke-width="1" fill="none" fill-rule="evenodd">
        <g id="Group" transform="translate(0.000000, 2.000000)" fill="#0D1012">
            <path d="M7.95082355,4.57477724 C7.71068914,4.57477724 7.50574992,4.60996882 7.33599974,4.68035305 C7.16624955,4.75073727 7.05239443,4.85631202 6.99443095,4.99708047 L4.85807345,10.188926 L3.25580532,10.188926 L1.11944782,5.00950115 C0.995240368,4.71968376 0.705427326,4.57477724 0.25,4.57477724 L0.25,3.8667983 L3.85199811,3.8667983 L3.85199811,4.57477724 L3.18128122,4.57477724 C2.94114681,4.57477724 2.82108141,4.65344078 2.82108141,4.81077022 C2.82108141,4.88529469 2.83350197,4.95153767 2.85834346,5.00950115 L4.51029432,9.13316796 L6.18708654,5.10886662 C6.22020853,5.05090314 6.23676928,4.98466016 6.23676928,4.91013569 C6.23676928,4.68656227 6.05874127,4.57477724 5.7026799,4.57477724 L5.23069394,4.57477724 L5.23069394,3.8667983 L7.95082355,3.8667983 L7.95082355,4.57477724 Z M14.5813757,8.92201634 C14.5813757,9.2946387 14.9457121,9.48094708 15.6743958,9.48094708 L15.6743958,10.188926 L13.3268867,10.188926 L13.2275213,9.15800932 C13.0287893,9.58031466 12.7141352,9.89289873 12.2835493,10.0957709 C11.8529635,10.2986431 11.3478608,10.4000776 10.768226,10.4000776 C10.3624817,10.4000776 9.97744433,10.3379748 9.61310247,10.2137674 C9.24876061,10.0895599 8.92789617,9.89083099 8.65049953,9.6175746 C8.37310288,9.3443182 8.15367301,8.99447246 7.99220332,8.56802687 C7.83073363,8.14158129 7.75,7.62612809 7.75,7.02165182 C7.75,6.40061456 7.8410841,5.8748109 8.02325503,5.44422506 C8.20542596,5.01363923 8.44555677,4.66172339 8.74365465,4.38846699 C9.04175254,4.1152106 9.385388,3.91855175 9.77457135,3.79848454 C10.1637547,3.67841734 10.569493,3.61838464 10.9917983,3.61838464 C11.3892621,3.61838464 11.7556686,3.67220706 12.0910288,3.77985352 C12.4263889,3.88749998 12.6892907,4.03654669 12.8797421,4.22699811 L12.8797421,1.89190968 C12.8797421,1.51928732 12.5195459,1.33297894 11.7991427,1.33297894 L11.7991427,0.625 L14.5813757,0.625 L14.5813757,8.92201634 Z M11.3530782,4.42572904 C11.0301388,4.42572904 10.7527463,4.48783184 10.5208924,4.61203929 C10.2890385,4.73624674 10.10066,4.91013457 9.95575131,5.13370798 C9.81084262,5.3572814 9.70319777,5.62432341 9.63281355,5.93484205 C9.56242933,6.24536068 9.52723774,6.58692605 9.52723774,6.95954841 C9.52723774,7.33217076 9.56242933,7.67166604 9.63281355,7.97804442 C9.70319777,8.28442281 9.81084262,8.54939473 9.95575131,8.77296814 C10.10066,8.99654156 10.2890385,9.17042938 10.5208924,9.29463684 C10.7527463,9.41884429 11.0301388,9.48094708 11.3530782,9.48094708 C11.6760175,9.48094708 11.9492698,9.41884429 12.1728433,9.29463684 C12.3964167,9.17042938 12.5765148,8.99654156 12.713143,8.77296814 C12.8497712,8.54939473 12.9491356,8.28442281 13.0112394,7.97804442 C13.0733431,7.67166604 13.1043945,7.33217076 13.1043945,6.95954841 C13.1043945,6.58692605 13.0733431,6.24536068 13.0112394,5.93484205 C12.9491356,5.62432341 12.8497712,5.3572814 12.713143,5.13370798 C12.5765148,4.91013457 12.3964167,4.73624674 12.1728433,4.61203929 C11.9492698,4.48783184 11.6760175,4.42572904 11.3530782,4.42572904 Z" id="vd"></path>
        </g>
    </g>
</svg>
